<?xml version="1.0" encoding="utf-8"?>
<!-- Generator: Adobe Illustrator 24.2.3, SVG Export Plug-In . SVG Version: 6.00 Build 0)  -->
<svg version="1.1" id="Camada_1" xmlns="http://www.w3.org/2000/svg" xmlns:xlink="http://www.w3.org/1999/xlink" x="0px" y="0px"
	 viewBox="0 0 1366 768" style="enable-background:new 0 0 1366 768;" xml:space="preserve">
<style type="text/css">
	.st0{fill:#F7BECA;}
	.st1{fill:#5F3C26;}
	.st2{fill:#FFE163;}
	.st3{fill:#F8C8D0;}
	.st4{fill:#FBBC43;}
	.st5{fill:#C74771;}
	.st6{fill:#C09983;}
	.st7{fill:#FFFFFF;}
</style>
<g>
	<g>
		<path class="st0" d="M932.54,194.47c-80.02-68.97-184.56-44.63-219.65-3.1c-23.87-41.15-60.32-63.22-111.42-71.21
			c-114.46-17.91-182.63,68.57-190.17,130.26c-12.95,106.03,62.49,197.94,123.39,261.08c-8.48,44.12-38.51,85.37-77.31,108.46
			c53.36,0.7,89.82-9.57,124.68-23.72c28.25,28.44,48.24,46.24,48.24,46.24s287.85-120.61,338.35-240.8
			c8.01-14.76,13.93-31.01,17.04-48.48C996.59,292,976.88,232.69,932.54,194.47z"/>
		<g>
			<path class="st1" d="M1010.84,316.88c-0.82-44.93-17.19-88.87-47.57-122.24c-28.36-31.14-66.49-52.27-108.28-58.68
				c-48.36-7.42-98.03,4.37-137.97,32.6c-27.22-48.69-78.01-81.24-133.26-87.43c-46.21-5.18-93.65,7.68-130.55,36
				c-53.3,40.92-81.37,108.89-70.77,175.58c-0.01-0.14-0.03-0.28-0.04-0.43c1.66,15.44,4.21,30.63,9.19,45.38
				c7.25,21.47,16.66,42.02,27.62,61.85c14.73,26.67,31.6,51.96,49.27,76.75c4.51,6.33,9.21,12.52,13.86,18.75
				c2.61,3.51,5.27,6.98,7.95,10.45c2.22,2.88,4.46,5.74,6.71,8.6c1.12,1.43,2.25,2.86,3.38,4.28c1.69,2.14,0.37,3.84-0.46,6.28
				c-9.34,27.46-24.42,53.36-45.1,73.85c-5.32,5.45-9.38,11.41-7.92,19.55c1.98,11,11.64,16.34,22.12,15.88
				c28.78-1.28,57.6-5.65,85.24-13.89c6.89-2.05,13.7-4.34,20.46-6.79c2.32-0.84,2.8-1.82,4.65,0.1c1.29,1.34,2.58,2.67,3.88,4.01
				c3.02,3.11,6.04,6.22,9.09,9.31c7.67,7.79,15.52,15.37,23.44,22.89c3.25,3.08,6.54,6.12,9.85,9.14c2.08,1.9,3.08,4.15,5.75,3
				c4.21-1.81,8.42-3.62,12.62-5.47c14.35-6.33,28.5-13.12,42.68-19.82c53.11-25.11,104.75-53.72,154.43-85.07
				c7.7-4.86,15.25-9.88,22.7-15.03c8.34-2.69,16.58-5.85,24.73-9.38c33.15-14.38,60.18-36.89,80.26-66.7
				c6.18-9.17,10.73-19.96,14.21-30.41c2.46-7.4,4.41-15.17,5.41-22.99c2.3-4.71,4.5-9.49,6.67-14.35
				C1005.59,368.91,1011.28,342.73,1010.84,316.88z M465.28,615c0.21-0.32,0.35-0.44,0.48-0.49
				C465.55,614.66,465.25,615.04,465.28,615z M979.17,389.36c-21.58-2.98-34.97-25.41-49.45-39.31c-4.91-4.71-6.4-4.74-5.87-11.3
				c0.48-6.07,0.76-12.14,0.7-18.23c-0.13-14.13-2.57-27.82-6.49-41.37c-9.61-32.55-41.58-12.21-57.78,2.32
				c-8.78,7.82-17.03,16.26-24.92,24.97c-40.71,6.88-59.71,19.27-68.4,24.58c-4.19,2.89-6.22,5.47-11.18,4.18
				c-6.64-1.73-13.32-3.32-20.07-4.57c-3.12-0.58-6.49-1.22-9.94-1.73c2.19-6.38,4.54-12.7,7.19-18.86
				c9.27-21.54,24.62-43.4,47.61-43.7c23.75-0.31,34.7,4.28,58.75,0.65c17.33-2.62,34.78-16.07,36.09-37.04
				c1.31-20.86-16.92-30.48-32.75-33.66c-42.3-8.32-78.08,10.94-111.36,44.33c-22.38-35.31-62.55-56.62-101.14-64.12
				c-37.58-7.31-77.57-3.73-115.23,12.18c-20.3,8.57-39.96,22.48-53.46,41.93c-10.86,15.66-17.2,44.22-2.6,56.47
				c15.87,13.31,42-7.03,56.32-18.39c14.44-11.45,27.99-24.6,40.57-38.63c-17.1,31.49-38.16,62.21-58.35,90.93
				c-15.01,6.98-27.13,18.61-34.42,36.2c-8.48,20.46-6.4,41.99,4.56,58.54c18.7,28.22,61.12,46.82,95.06,34.1
				c18.1,37.03,62.14,55.87,101.27,40.88c20.44-7.83,35.65-26.84,40.57-49.73c2.96-13.76,1.93-26.21-1.95-37.79
				c1.52-4.94,3.08-9.86,4.62-14.79c0.81,1.29,1.63,2.56,2.47,3.83c3.28,4.94,6.83,9.69,10.5,14.35c4.01,5.11,2.32,8.6,1.65,14.86
				c-1.35,12.53-1.04,25.3-3.37,37.7c-2.15,11.47-6.48,21.77-13.7,30.93c-6.71,8.51,9.89,19.66,15.5,24.14
				c20.9,16.73,46.54,27.39,73.15,30.34c5.24,0.58,10.43,0.84,15.58,0.86c-52.71,32.23-108.56,59.61-165.23,83.28
				c-2.82,1.18-7.5,4.76-9.97,2.45c-1.85-1.73-3.71-3.46-5.56-5.19c-3.27-3.06-6.5-6.16-9.75-9.24
				c-11.56-10.96-22.95-22.1-34.25-33.33c-0.77-0.76-16.84,6.91-17.47,7.15c-11.71,4.56-23.66,8.48-35.76,11.85
				c-21.26,5.92-42.9,9.67-64.87,11.68c0.04-0.05,0.43-0.51,0.02-0.06c17.9-19.92,31.99-42.57,41.33-67.73
				c2.38-6.41,4.46-12.94,6.25-19.54c0.8-2.93,3.67-8.84,1.45-11.37c-9.09-10.34-18.16-20.72-26.86-31.41
				c-34.08-41.89-67.74-87.88-85.9-139.27c-14.19-40.15-17.93-86.35-4.13-127.06c15.78-46.57,50.81-82.88,95.74-102.05
				c37.4-15.77,80.34-17.06,118.78-4.21c24.12,8.06,46.06,21.02,64.85,38.15c13.78,12.57,24.76,27.38,35.26,42.69
				c12.29-10.89,24.64-21.42,39.14-29.3c20.8-11.3,43.05-17.42,66.54-19.66c44.51-4.25,90.14,12.88,123.3,42.06
				c37.81,32.15,57.44,82.43,56.31,131.37c-0.33,15.12-3.03,30.48-7.62,44.87C987.53,370.89,983.64,380.29,979.17,389.36z"/>
			<path class="st2" d="M942.44,384.3c-10.85-10.91-19.75-23.32-31.34-33.63c-10.29-9.15-21.67-17.48-34.12-23.48
				c-34.26-18.92-76.81-5.18-108.1,13.09c-28.63,16.72-37.75,56.06-41.95,86.22c-1.07,7.7-1.26,15.49-2.22,23.2
				c-1.1,8.87-3.13,17.69-6.68,25.92c-2.25,5.23-5.45,10.73-12.03,18.75c3.23,4.05,10.66,11.05,17.18,15.91
				c9.42,7.01,19.78,12.79,30.66,17.19c21.82,8.83,45.44,11.41,68.75,8.72c23.26-2.69,45.64-10.84,66.44-21.37
				c26.86-13.19,54.68-35.46,69.03-62.44c4.61-8.68,8.87-17.39,11.82-26.79c1.35-4.31,2.31-8.69,3.26-13.1
				c0.53-2.4,0.87-4.85,1.14-7.29c0.38-3.46-2.83-2.58-5.64-3.53C958.63,398.3,949.88,391.7,942.44,384.3
				C940.76,382.62,945.81,387.65,942.44,384.3z"/>
			<path class="st3" d="M865.3,310.48c8.37-8.36,15.21-13.87,26.6-20.64c2.25,12.47,4.03,22.87,5.47,34.86
				C894.41,322.86,883.88,315.4,865.3,310.48z"/>
			<path class="st2" d="M913.37,296.73c-1.75-6.98-3.35-16.21-7.94-21.95c-5.25-6.57-14.3-3.07-20.41,0.18
				c-15.19,8.08-28.37,21.28-41.29,32.5c4.24,0.11,16.57,1.58,16.57,1.58s5.9-6.79,12.73-12.41c8.16-6.7,19.57-13.34,28.43-13.9
				c-2.01,1.53-4.93,3.67-7.14,5.42c7.07,18.82,7.05,33.07,5.81,38.33c6.57,4.25,12.85,8.89,18.84,13.92
				C918.29,325.76,917.08,310.96,913.37,296.73C912.16,291.91,915.87,306.33,913.37,296.73z"/>
			<path class="st1" d="M784.44,444.11c-5.28-10.03-9.26-24.42-4.79-35.42c2.61-6.41,8.88-10.74,15.59-6.55
				c5.05,3.15,8.49,8.73,11.16,13.89c0.51,0.98,4.67,12.73,1.06,8.05c-2.88-3.74-13.43-20.81-19.35-16.4c0.1-0.07,0.2-0.14,0.3-0.21
				c-4.84,4.92-4.54,12.92-3.99,19.3c0.44,4.5,1.05,8.97,1.86,13.42C786.26,440.08,786.75,448.21,784.44,444.11z"/>
			<path class="st1" d="M884.29,409.07c-4.82-9.07-11.94-25.58-23.58-26.97c0.12-0.01,0.25-0.02,0.37-0.02
				c-7.38,0.26-4.95,20.18-4.86,24.89c0.11,5.81-3.96-5.75-4.2-6.94c-1.22-6.13-2.33-14.04,0.93-19.79
				c3.57-7.11,12.63-4.91,17.62-1.17c5.94,4.45,9.84,11.16,12.64,17.92c1.32,3.17,2.43,6.44,3.2,9.79
				C886.64,407.8,885.85,411.91,884.29,409.07z"/>
			<path class="st1" d="M756.62,461.01c7.51,1.36,15.01,2.72,22.52,4.07c4.32,0.78,8.63,1.56,12.95,2.34
				c2.78,0.5,6.13,5.18,1.78,4.4c-6.93-1.26-13.8-3.03-20.68-4.54c-4.53-1-9.07-1.99-13.6-2.99
				C758.05,463.96,752.92,460.35,756.62,461.01z"/>
			<path class="st1" d="M796.68,482.79c-8.17,1.4-16.33,2.8-24.5,4.2c-5.03,0.86-10.06,1.72-15.1,2.59
				c-1.24,0.21-2.49,0.43-3.73,0.64c-1.49,0.26-2.56-1.82-0.8-2.19c1.02-1.13,6.36-1.34,7.79-1.65c6.09-1.29,12.18-2.57,18.26-3.86
				c4.76-1.01,9.51-2.01,14.26-3.02c0.99-0.21,1.97-0.42,2.96-0.63C798.47,478.31,799.33,482.33,796.68,482.79z"/>
			<path class="st1" d="M799.42,490.75c-4.73,4.59-9.47,9.18-14.2,13.78c-2.82,2.73-5.64,5.47-8.46,8.2
				c-0.83,0.81-5.89,2.8-3.48,0.21c4.86-5.22,9.72-10.44,14.58-15.67c2.49-2.68,4.98-5.35,7.48-8.03
				C797.33,487.11,802.24,487.98,799.42,490.75z"/>
			<path class="st1" d="M918.94,406.41c-4.8,5.93-9.59,11.87-14.39,17.8c-2.76,3.41-5.52,6.82-8.27,10.23
				c-1.77,2.19-7.49,2.89-4.71-0.55c4.42-5.48,9.28-10.65,13.91-15.96c3.05-3.5,6.1-7,9.15-10.49c0.68-0.79,1.37-1.57,2.05-2.36
				C917.63,404,920.44,404.55,918.94,406.41z"/>
			<path class="st1" d="M897.42,443.25c7.4-3.73,14.8-7.45,22.2-11.18c4.56-2.3,9.12-4.59,13.68-6.89c1.13-0.57,2.25-1.13,3.38-1.7
				c1.35-0.68,2.98,0.99,1.41,1.86c-0.65,1.38-5.69,3.15-6.97,3.85c-5.44,3.01-10.89,6.02-16.33,9.03
				c-4.25,2.35-8.51,4.7-12.76,7.06c-0.88,0.49-1.76,0.98-2.65,1.46C897.01,448.05,895.02,444.48,897.42,443.25z"/>
			<path class="st1" d="M902.6,450.74c6.52,0.96,13.05,1.92,19.57,2.88c3.89,0.57,7.77,1.14,11.66,1.72c1.35,0.2,5.62,2.95,2.4,2.65
				c-1.01,0.62-5.23-0.5-6.36-0.61c-5.02-0.48-10.05-0.96-15.07-1.44c-3.64-0.35-7.28-0.7-10.92-1.05
				C900.98,454.61,898.7,450.18,902.6,450.74z"/>
			<path class="st1" d="M878.7,460.97c-1.41,9.16-5.92,15.03-15.81,15.57c-7.83,0.27-12.15-8.92-14.34-14.45
				c6.83-2.89,11.95-10.17,9.63-21.01c-0.56-2.19-2.38-7.51-4.4-7.27c-10.54,1.23-20.75,5.1-28.28,12.8
				c0.81,13.49,11.07,18.42,19.98,16.46c1.18,5.73,3.06,17.28-2.72,20.87c-8.07,5.76-15.42,3.72-22.24-2.55
				c3.42,12.98,18.21,15.13,27.69,6.78c2.77-2.43,4.14-5.2,4.56-8.1c2.56,2.48,6.02,3.91,10.71,3.45
				C875.26,482.54,883.86,472.62,878.7,460.97z"/>
			<path class="st4" d="M758.42,348.16c5.85,6.87,17.22,20.04,21.62,23.61c8.68,7.05,18.83-0.93,17.64-10.99
				c-1.15-9.69-5.99-20.92-10.16-30.1c-6.52,2.92-12.78,6.18-18.64,9.6C765.05,342.52,761.59,345.19,758.42,348.16z"/>
			<path class="st4" d="M843.34,352.29c3.51-9.61,3.49-23.3,3.75-33.82c-11.43-0.92-23.11,0.45-34.52,3.38
				c3.1,10.74,5.61,19.82,9.73,28.33C826.19,358.24,839.17,363.7,843.34,352.29z"/>
			<path class="st4" d="M744.1,411.28c-6.48,0.27-4.15,10.18,1.7,8.14C752.63,417.03,750.86,411,744.1,411.28z"/>
			<path class="st4" d="M747.74,397.38c2.11,3.05,12.6-0.75,10.62-5.09C753.84,389.68,741.76,388.77,747.74,397.38z"/>
			<path class="st4" d="M762.54,383.24c8.88-3.11-1.68-14.85-8.45-12.83C748.12,372.18,756,385.53,762.54,383.24z"/>
			<path class="st4" d="M897.85,364.3c4.02-1.09,8.78-9.96,1.86-10.01C892.61,354.24,891.05,366.14,897.85,364.3z"/>
			<path class="st4" d="M887.3,351.47c4.49-5.92-1.39-10.98-6.39-5.14C876.81,351.11,882.91,357.26,887.3,351.47z"/>
			<path class="st4" d="M873.84,345.5c2.94-10.1-7.72-17.55-11.09-5.61C860.03,349.51,871.15,356.7,873.84,345.5
				C874.63,342.77,873.05,348.78,873.84,345.5z"/>
			<path class="st5" d="M833.68,456.93c-3.1-1.66-5.19-6.15-6.1-8.73c14.05-8.44,24.95-9.04,24.95-9.04s2.08,5.69-0.19,10.51
				C849.65,455.36,840.84,460.93,833.68,456.93z"/>
			<path class="st3" d="M718.44,351.84c4.19,9.42,8.15,18.94,12.27,28.39c3.29-9.29,7.52-18.22,13.01-26.41
				c-8.39-0.63-16.74-1.87-25.13-2.47C718.54,351.51,718.49,351.67,718.44,351.84z"/>
			<g>
				<path class="st2" d="M712.08,372.52c-0.96,3-1.87,6.01-2.82,9.02c4.74,8.97,10.31,17.44,14.75,24.46
					c1.35-7.31,5.32-21.65,5.32-21.65s-8.29-11.99-12.46-27.36C715.3,362.19,713.72,367.38,712.08,372.52z"/>
				<path class="st2" d="M719.83,347.29c3.55-0.41,7.18-0.35,10.69-0.01c3.06,0.36,15.72,2.14,15.72,2.14s4.37-4.91,8.45-8.83
					c-5.45-0.84-18.91-4.12-31.2-4.92C722.25,339.52,721.03,343.4,719.83,347.29z"/>
			</g>
			<path class="st6" d="M563.77,220.79c1.8-3.7,3.63-7.38,5.39-11.09c-10.06,12.35-20.58,24.05-31.92,35.01
				c-16.31,15.76-35.33,32.88-55.87,40.28c-25.55,9.2-32.16-20.17-21.44-41.47c9.16-18.75,30.26-33.78,47.15-42.3
				c45.33-22.88,101.68-26.11,148.47-8.97c-0.43,1.99-0.67,4.09-0.86,5.16c-1.25,6.99-2.5,13.98-4.21,20.91
				c-5.05,20.32-13.74,40.23-28.07,55.47c-30.25,32.18-72.18,31.87-109.25,41.7c17.62-31.03,34.89-62.51,50.51-94.47
				c0.05-0.06,0.1-0.12,0.15-0.18C563.8,220.82,563.78,220.8,563.77,220.79z"/>
			<path class="st6" d="M843.62,258.09c-22.72,4.87-34.29,1.78-56.65,0.39c-21.67-1.35-39.5,10.84-51.93,31.6
				c-11.93,19.92-17.4,42.43-24.56,64.23c-4.21,12.84-8.27,25.72-12.27,38.62c-0.84-1.69-1.72-3.36-2.66-5.01
				c-10.82-18.88-22.32-36.95-31.51-57.04c-9.03-19.74-8.51-42.04-1.44-64.23c6.4-20.09,16.91-38.52,28.42-55.96
				c15.47,10.9,28.72,24.84,38.49,41.93c30.1-31.2,59.89-53.14,99.52-49.77c13.65,1.16,33.32,4.22,38.12,20.04
				C872.01,238.86,857.43,254.87,843.62,258.09z"/>
			<path class="st1" d="M572.52,269.93c4.38-14.56,13.26-31.65,25.95-39.62c6.64-4.16,16.88-5.56,19.78,3.42
				c2.96,8.3,0.27,18.95-2.44,27.56c-1.02,3.24-2.2,6.45-3.53,9.58c-0.83,1.95-2.91,1.72-2.58-0.6c0.79-5.61,7.21-34.61-1.59-34.43
				c-0.27-0.03,0.29,0.03,0.38,0.04c-8.77,0.35-16.24,10.36-21.46,17.48c-3.8,5.19-7.29,10.63-10.69,16.12
				C575.45,270.96,571.43,273.77,572.52,269.93z"/>
			<path class="st1" d="M694.9,324.94c3.78-12.96,13.18-37.46,4.11-48.36c0.07,0.06,0.49,0.43,0.28,0.26
				c-5.72-6.72-22.99,17.4-26.63,21.72c-1.34,1.6-3.17,0.61-2.17-1.53c1.81-3.87,3.86-7.64,6.12-11.25
				c4.52-7.21,11.18-16.81,19.39-18.56c9.87-2.1,14.07,9.67,14.29,18.38c0.29,10.38-3.33,21.44-7.65,31.04
				C702.03,318.03,695.13,332.07,694.9,324.94z"/>
			<path class="st7" d="M676.96,373.25c-13.7-24.14-28.82-50.52-25.29-82.48c3.32-30.05,18.35-58.69,34.77-83.65
				c-7.22-6.35-16.44-10.35-25.25-13.49c3.1,1.12-0.99-0.08-0.94-0.34c-3.52,17.47-5.84,34.67-12.68,51.53
				c-9.76,24.03-26.1,43.58-47.11,55.11c-21.95,12.04-45.1,16.73-68.14,22.1c-20.98,4.89-42.16,12.07-53.43,36.09
				c-24.94,53.15,28.55,88.26,67.59,86.52c7.93-0.35,15.34-2.58,22.88-6.34c2.72-1.36,8.69,13.25,10.46,15.82
				c13.26,19.27,32.95,31.37,55.86,31.5c24.52,0.14,49.4-12.7,57.96-42.37C702.03,414.14,689.07,394.57,676.96,373.25z"/>
			<path class="st1" d="M562.51,356.63c-1.36-20.47,12.22-35.61,30.91-34.32c17.78,1.22,62.89,17.47,54,46.05
				c-2.31,7.43-10.6,13.49-16.09,17.93c-8.68,7.01-18.17,13.29-28.16,17.22c-7.89,3.1-17.98,5.3-24.31-0.84
				C568.72,392.84,563.5,371.6,562.51,356.63z"/>
		</g>
	</g>
</g>
</svg>
